<?xml version="1.0" standalone="no"?><!DOCTYPE svg PUBLIC "-//W3C//DTD SVG 1.1//EN" "http://www.w3.org/Graphics/SVG/1.1/DTD/svg11.dtd"><svg t="1510815209085" class="icon" style="" viewBox="0 0 1082 1024" version="1.1" xmlns="http://www.w3.org/2000/svg" p-id="1847" xmlns:xlink="http://www.w3.org/1999/xlink" width="211.328125" height="200"><defs><style type="text/css"></style></defs><path d="M1078.906166 387.088472a53.075961 53.075961 0 0 0-50.330652-37.519214l-328.979446-6.405719L591.613941 36.146559a53.991063 53.991063 0 0 0-101.576407 0L382.055407 343.163539l-328.979446 6.863271a53.991063 53.991063 0 0 0-31.571046 97.000893l261.719392 196.289545-94.713136 311.134941a53.075961 53.075961 0 0 0 7.778373 45.755139 54.448615 54.448615 0 0 0 45.755139 22.420018 53.533512 53.533512 0 0 0 30.198391-9.608579l270.412869-186.223414 270.412868 186.223414a53.533512 53.533512 0 0 0 30.198392 9.608579 54.906166 54.906166 0 0 0 45.755138-22.420018 53.075961 53.075961 0 0 0 7.778374-45.755139l-95.170688-310.67739 261.719392-196.289544a53.075961 53.075961 0 0 0 15.556747-60.396783z m-45.755138 22.877569l-274.530831 205.898123a22.877569 22.877569 0 0 0-8.235925 25.165327l99.746202 326.234137a7.320822 7.320822 0 0 1 0 6.863271 9.151028 9.151028 0 0 1-6.863271 3.660411 7.778374 7.778374 0 0 1-4.575514 0l-285.054513-195.831993a22.877569 22.877569 0 0 0-26.080429 0l-283.224307 194.91689a8.235925 8.235925 0 0 1-11.438785 0 7.320822 7.320822 0 0 1 0-6.86327L331.724754 640.571939a22.877569 22.877569 0 0 0-8.235925-25.165326L48.957998 411.796247A7.778374 7.778374 0 0 1 45.755139 401.272565a7.778374 7.778374 0 0 1 7.320822-5.490617l345.451295-6.863271a22.877569 22.877569 0 0 0 21.047364-15.099195l113.015192-320.28597a7.778374 7.778374 0 0 1 8.235925-7.778373 7.778374 7.778374 0 0 1 7.778374 5.490616l113.015192 320.28597a22.877569 22.877569 0 0 0 21.047364 15.099195l344.993744 6.863271a8.235925 8.235925 0 0 1 4.575514 14.641645z" fill="#231F20" p-id="1848"></path></svg>